#!OML:ASF E:\pregnant2\Project 1\Capture day 1\Session 1\pregnant2.ASF
:FULLY-SPECIFIED
:DEGREES
737
root 4.07211 17.087 44.2576 37.3702 19.7989 0.320737
lowerback -27.4494 -3.22927 -1.61915
upperback -19.3236 -3.3888 1.87339
thorax -6.58153 -1.24871 2.25811
lowerneck -12.328 -1.71567 -4.56903
upperneck 40.6829 -1.15699 0.393155
head 16.8693 -1.05395 0.822003
rclavicle -1.45858e-014 -2.09718e-014
rhumerus 64.5044 54.9701 22.8376
rradius 119.299
rwrist 15.0393
rhand -32.1563 -17.3827
rfingers 7.12502
rthumb -5.39964 -47.2939
lclavicle -1.45858e-014 -2.09718e-014
lhumerus 68.5381 -52.9071 -20.6266
lradius 116.897
lwrist 2.14472
lhand -23.4768 20.9127
lfingers 7.12502
lthumb 2.98268 50.8716
rfemur -46.5469 9.61334 13.8276
rtibia 23.7949
rfoot -14.0165 -18.3285
rtoes -0.879222
lfemur -48.4873 -15.0348 -12.7059
ltibia 20.3427
lfoot -4.42595 13.74
ltoes -17.9428
738
root 4.07139 17.0874 44.258 37.3744 19.791 0.316782
lowerback -27.4553 -3.23009 -1.60842
upperback -19.3233 -3.39219 1.87859
thorax -6.57855 -1.2514 2.2569
lowerneck -12.317 -1.71557 -4.57305
upperneck 40.7287 -1.15192 0.384504
head 16.8918 -1.05422 0.81993
rclavicle 5.80451e-014 -2.38542e-015
rhumerus 64.4364 54.8128 22.8102
rradius 118.714
rwrist 16.1413
rhand -32.1031 -16.5084
rfingers 7.12502
rthumb -5.34827 -46.4209
lclavicle 5.80451e-014 -2.38542e-015
lhumerus 68.3459 -52.7115 -20.4188
lradius 116.574
lwrist 1.42667
lhand -22.884 20.197
lfingers 7.12502
lthumb 3.55517 50.1471
rfemur -46.5448 9.62609 13.826
rtibia 23.7752
rfoot -14.0062 -18.3365
rtoes -0.879229
lfemur -48.493 -15.0295 -12.7003
ltibia 20.3486
lfoot -4.42426 13.7481
ltoes -17.9532
739
root 4.0707 17.088 44.2585 37.3784 19.7778 0.313981
lowerback -27.468 -3.22813 -1.59802
upperback -19.3195 -3.39191 1.88098
thorax -6.56843 -1.25253 2.25317
lowerneck -12.3043 -1.71737 -4.57678
upperneck 40.7663 -1.15045 0.376508
head 16.9095 -1.05577 0.817438
rclavicle 7.8023e-015 -8.94531e-015
rhumerus 64.3487 54.6316 22.7515
rradius 118.132
rwrist 17.1311
rhand -32.1193 -15.6526
rfingers 7.12502
rthumb -5.36389 -45.5648
lclavicle 7.8023e-015 -8.94531e-015
lhumerus 68.1486 -52.4994 -20.2054
lradius 116.247
lwrist 0.710412
lhand -22.2693 19.5378
lfingers 7.12502
lthumb 4.14872 49.4772
rfemur -46.5427 9.64369 13.8188
rtibia 23.7544
rfoot -13.9953 -18.3468
rtoes -0.879197
lfemur -48.4935 -15.019 -12.7031
ltibia 20.3604
lfoot -4.43453 13.7546
ltoes -17.9514
740
root 4.0701 17.0885 44.2591 37.3793 19.761 0.311932
lowerback -27.481 -3.22127 -1.58501
upperback -19.3139 -3.38594 1.87905
thorax -6.5567 -1.25137 2.24433
lowerneck -12.2852 -1.72124 -4.58152
upperneck 40.7933 -1.15314 0.370203
head 16.9198 -1.05884 0.815152
rclavicle -1.74682e-014 1.53064e-014
rhumerus 64.2499 54.4379 22.6759
rradius 117.56
rwrist 18.0019
rhand -32.2237 -14.8015
rfingers 7.12502
rthumb -5.46474 -44.711
lclavicle -1.74682e-014 1.53064e-014
lhumerus 67.964 -52.2773 -20.0043
lradius 115.912
lwrist 0.0210567
lhand -21.6838 18.9531
lfingers 7.12502
lthumb 4.71409 48.8807
rfemur -46.5372 9.66379 13.8091
rtibia 23.7335
rfoot -13.9856 -18.3567
rtoes -0.875625
lfemur -48.4909 -15.0103 -12.7067
ltibia 20.3719
lfoot -4.44173 13.766
ltoes -17.954
741
root 4.06967 17.0891 44.2598 37.3778 19.7416 0.310051
lowerback -27.4949 -3.21111 -1.56855
upperback -19.3068 -3.37646 1.87485
thorax -6.54311 -1.24901 2.23171
lowerneck -12.2652 -1.7257 -4.5912
upperneck 40.8144 -1.15753 0.36921
head 16.9268 -1.06258 0.815832
rclavicle -1.56543e-014 2.19657e-014
rhumerus 64.1534 54.2354 22.5972
rradius 117.012
rwrist 18.7565
rhand -32.375 -13.965
rfingers 7.12502
rthumb -5.61084 -43.8707
lclavicle -1.56543e-014 2.19657e-014
lhumerus 67.7907 -52.0527 -19.8201
lradius 115.58
lwrist -0.602478
lhand -21.1546 18.382
lfingers 7.12502
lthumb 5.22509 48.2976
rfemur -46.5279 9.6832 13.7994
rtibia 23.7104
rfoot -13.9729 -18.3632
rtoes -0.873939
lfemur -48.482 -14.9987 -12.716
ltibia 20.3865
lfoot -4.45856 13.7759
ltoes -17.945
742
root 4.06943 17.0898 44.2607 37.371 19.7219 0.306925
lowerback -27.5083 -3.19879 -1.54815
upperback -19.2984 -3.36507 1.87067
thorax -6.52853 -1.2461 2.21728
lowerneck -12.2444 -1.73052 -4.60824
upperneck 40.8343 -1.16225 0.373014
head 16.9332 -1.06692 0.819944
rclavicle 2.84759e-014 -3.06128e-014
rhumerus 64.0665 54.0285 22.5264
rradius 116.492
rwrist 19.4207
rhand -32.5565 -13.1956
rfingers 7.12502
rthumb -5.786 -43.0966
lclavicle 2.84759e-014 -3.06128e-014
lhumerus 67.6398 -51.8341 -19.671
lradius 115.245
lwrist -1.18543
lhand -20.7528 17.8551
lfingers 7.12502
lthumb 5.61306 47.7607
rfemur -46.512 9.70317 13.7919
rtibia 23.6877
rfoot -13.9632 -18.3672
rtoes -0.864932
lfemur -48.4692 -14.9921 -12.7208
ltibia 20.3977
lfoot -4.47082 13.7911
ltoes -17.9387
743
root 4.06941 17.0905 44.2618 37.3601 19.7027 0.30374
lowerback -27.5222 -3.185 -1.52378
upperback -19.2907 -3.35258 1.86541
thorax -6.51475 -1.2431 2.19967
lowerneck -12.2188 -1.7346 -4.62542
upperneck 40.8558 -1.16662 0.378353
head 16.9392 -1.07092 0.824873
rclavicle -2.97183e-014 -5.26779e-015
rhumerus 63.9909 53.8255 22.4622
rradius 116.013
rwrist 20.0035
rhand -32.7268 -12.5058
rfingers 7.12502
rthumb -5.95048 -42.4022
lclavicle -2.97183e-014 -5.26779e-015
lhumerus 67.5181 -51.6294 -19.5659
lradius 114.909
lwrist -1.74768
lhand -20.4944 17.3926
lfingers 7.12502
lthumb 5.8625 47.2915
rfemur -46.4893 9.71861 13.7887
rtibia 23.6646
rfoot -13.9525 -18.3654
rtoes -0.862757
lfemur -48.448 -14.9841 -12.7299
ltibia 20.4078
lfoot -4.48854 13.8022
ltoes -17.9234
744
root 4.06943 17.0911 44.2632 37.349 19.6842 0.2996
lowerback -27.5432 -3.17136 -1.49684
upperback -19.2823 -3.34062 1.86026
thorax -6.49707 -1.24067 2.18035
lowerneck -12.191 -1.73807 -4.63792
upperneck 40.878 -1.1702 0.380164
head 16.9449 -1.07437 0.827522
rclavicle 5.24295e-014 5.87409e-014
rhumerus 63.9233 53.6267 22.4005
rradius 115.581
rwrist 20.5197
rhand -32.8522 -11.9424
rfingers 7.12502
rthumb -6.07153 -41.8354
lclavicle 5.24295e-014 5.87409e-014
lhumerus 67.424 -51.4399 -19.5073
lradius 114.57
lwrist -2.30371
lhand -20.4084 16.9906
lfingers 7.12502
lthumb 5.94555 46.8872
rfemur -46.4657 9.73083 13.7896
rtibia 23.6424
rfoot -13.9435 -18.36
rtoes -0.855433
lfemur -48.43 -14.9799 -12.7323
ltibia 20.4147
lfoot -4.50312 13.817
ltoes -17.9011
745
root 4.06947 17.0917 44.2649 37.3384 19.6655 0.295952
lowerback -27.5711 -3.15991 -1.4704
upperback -19.2744 -3.33121 1.85605
thorax -6.47662 -1.23944 2.16157
lowerneck -12.1615 -1.73875 -4.64543
upperneck 40.9026 -1.17011 0.379689
head 16.9512 -1.07586 0.828907
rclavicle -1.11816e-014 2.31584e-014
rhumerus 63.8722 53.4344 22.3494
rradius 115.196
rwrist 20.9855
rhand -32.9415 -11.5054
rfingers 7.12502
rthumb -6.15775 -41.3959
lclavicle -1.11816e-014 2.31584e-014
lhumerus 67.3565 -51.2693 -19.4984
lradius 114.232
lwrist -2.87658
lhand -20.5056 16.6516
lfingers 7.12502
lthumb 5.85169 46.5508
rfemur -46.4421 9.74325 13.7898
rtibia 23.6209
rfoot -13.9355 -18.3542
rtoes -0.841676
lfemur -48.4117 -14.976 -12.7354
ltibia 20.4222
lfoot -4.51795 13.8315
ltoes -17.884
746
root 4.06955 17.0924 44.2665 37.3271 19.6483 0.291169
lowerback -27.6032 -3.15134 -1.44186
upperback -19.2669 -3.32588 1.85445
thorax -6.45457 -1.24036 2.1435
lowerneck -12.1285 -1.73541 -4.64276
upperneck 40.9249 -1.16378 0.370972
head 16.9549 -1.07432 0.825841
rclavicle 5.46658e-015 1.78906e-014
rhumerus 63.8452 53.248 22.3145
rradius 114.856
rwrist 21.4108
rhand -33.0115 -11.1996
rfingers 7.12502
rthumb -6.22533 -41.0881
lclavicle 5.46658e-015 1.78906e-014
lhumerus 67.2951 -51.1193 -19.5195
lradius 113.898
lwrist -3.4634
lhand -20.755 16.3632
lfingers 7.12502
lthumb 5.61093 46.2689
rfemur -46.4179 9.75233 13.794
rtibia 23.6003
rfoot -13.9269 -18.3447
rtoes -0.834482
lfemur -48.3933 -14.9722 -12.7369
ltibia 20.4298
lfoot -4.53156 13.8453
ltoes -17.8596
747
root 4.06956 17.0929 44.2684 37.316 19.6296 0.286767
lowerback -27.6387 -3.14779 -1.41698
upperback -19.2591 -3.32626 1.85793
thorax -6.42986 -1.24353 2.13173
lowerneck -12.099 -1.72809 -4.63764
upperneck 40.9454 -1.1505 0.358782
head 16.9582 -1.07003 0.82194
rclavicle -1.98785e-014 -3.67752e-015
rhumerus 63.8459 53.0632 22.2993
rradius 114.551
rwrist 21.8031
rhand -33.0953 -10.9906
rfingers 7.12502
rthumb -6.30623 -40.8768
lclavicle -1.98785e-014 -3.67752e-015
lhumerus 67.2308 -50.9852 -19.5606
lradius 113.572
lwrist -4.06971
lhand -21.1306 16.1074
lfingers 7.12502
lthumb 5.24824 46.0224
rfemur -46.3943 9.76099 13.7983
rtibia 23.5801
rfoot -13.9153 -18.3351
rtoes -0.841089
lfemur -48.3771 -14.9696 -12.7376
ltibia 20.44
lfoot -4.54295 13.862
ltoes -17.8432
748
root 4.06959 17.0935 44.2701 37.3023 19.613 0.279724
lowerback -27.6714 -3.14851 -1.39066
upperback -19.2526 -3.33254 1.86739
thorax -6.40756 -1.24944 2.12467
lowerneck -12.0705 -1.71731 -4.62909
upperneck 40.9641 -1.1316 0.343166
head 16.9605 -1.06337 0.816833
rclavicle -2.56929e-014 4.53229e-014
rhumerus 63.8809 52.8797 22.3104
rradius 114.276
rwrist 22.1627
rhand -33.216 -10.8312
rfingers 7.12502
rthumb -6.42271 -40.7138
lclavicle -2.56929e-014 4.53229e-014
lhumerus 67.1592 -50.8666 -19.6115
lradius 113.26
lwrist -4.69736
lhand -21.5809 15.8857
lfingers 7.12502
lthumb 4.81345 45.811
rfemur -46.3683 9.76907 13.8071
rtibia 23.5603
rfoot -13.9044 -18.3251
rtoes -0.856251
lfemur -48.36 -14.9681 -12.7345
ltibia 20.4514
lfoot -4.5537 13.8792
ltoes -17.8317
749
root 4.06962 17.0938 44.2719 37.2879 19.5939 0.272131
lowerback -27.7001 -3.15375 -1.36731
upperback -19.2489 -3.34415 1.8827
thorax -6.3897 -1.25733 2.12483
lowerneck -12.0443 -1.70362 -4.61608
upperneck 40.9817 -1.1078 0.323198
head 16.9625 -1.05464 0.809776
rclavicle -1.08835e-014 8.64713e-015
rhumerus 63.949 52.6971 22.3431
rradius 114.031
rwrist 22.4739
rhand -33.3494 -10.675
rfingers 7.12502
rthumb -6.55157 -40.5536
lclavicle -1.08835e-014 8.64713e-015
lhumerus 67.0693 -50.7602 -19.6541
lradius 112.974
lwrist -5.31904
lhand -22.0214 15.6694
lfingers 7.12502
lthumb 4.38811 45.604
rfemur -46.3421 9.77545 13.8183
rtibia 23.5408
rfoot -13.8893 -18.3125
rtoes -0.893029
lfemur -48.3442 -14.9654 -12.7326
ltibia 20.464
lfoot -4.55791 13.8987
ltoes -17.8406
750
root 4.06966 17.094 44.2737 37.2714 19.5768 0.261629
lowerback -27.7245 -3.16354 -1.34355
upperback -19.2479 -3.36178 1.90488
thorax -6.37648 -1.26779 2.13131
lowerneck -12.0173 -1.68786 -4.60295
upperneck 40.9973 -1.08121 0.303487
head 16.963 -1.04471 0.803281
rclavicle 4.87519e-014 3.22031e-014
rhumerus 64.0455 52.5122 22.3949
rradius 113.805
rwrist 22.7651
rhand -33.5164 -10.4951
rfingers 7.12502
rthumb -6.7127 -40.3687
lclavicle 4.87519e-014 3.22031e-014
lhumerus 66.9669 -50.6629 -19.691
lradius 112.711
lwrist -5.95623
lhand -22.4507 15.4844
lfingers 7.12502
lthumb 3.97357 45.4271
rfemur -46.3154 9.78414 13.8319
rtibia 23.5228
rfoot -13.8777 -18.3022
rtoes -0.921949
lfemur -48.3296 -14.9606 -12.7284
ltibia 20.4762
lfoot -4.55677 13.9162
ltoes -17.8618
751
root 4.06976 17.0941 44.2756 37.2523 19.5602 0.248913
lowerback -27.7436 -3.17588 -1.3197
upperback -19.2496 -3.38281 1.93157
thorax -6.36851 -1.27961 2.14229
lowerneck -11.9895 -1.67146 -4.58896
upperneck 41.0115 -1.05482 0.285375
head 16.9626 -1.03453 0.797302
rclavicle 1.635e-014 2.78299e-014
rhumerus 64.1586 52.3223 22.4547
rradius 113.589
rwrist 23.0506
rhand -33.7119 -10.2271
rfingers 7.12502
rthumb -6.90147 -40.0946
lclavicle 1.635e-014 2.78299e-014
lhumerus 66.8575 -50.5738 -19.7229
lradius 112.472
lwrist -6.62665
lhand -22.8525 15.3385
lfingers 7.12502
lthumb 3.58557 45.2881
rfemur -46.2877 9.79344 13.8485
rtibia 23.5076
rfoot -13.8694 -18.2912
rtoes -0.949767
lfemur -48.3095 -14.9516 -12.7264
ltibia 20.4839
lfoot -4.55208 13.93
ltoes -17.8947
